<?xml version="1.0" encoding="UTF-8"?> <!-- Generator: Adobe Illustrator 24.1.0, SVG Export Plug-In . SVG Version: 6.00 Build 0) --> <svg xmlns="http://www.w3.org/2000/svg" xmlns:xlink="http://www.w3.org/1999/xlink" version="1.1" id="Layer_1" x="0px" y="0px" viewBox="0 0 234 72" style="enable-background:new 0 0 234 72;" xml:space="preserve"> <style type="text/css"> .st0{fill-rule:evenodd;clip-rule:evenodd;fill:#0033A1;} .st1{fill-rule:evenodd;clip-rule:evenodd;fill:#0079C1;} .st2{fill-rule:evenodd;clip-rule:evenodd;fill:#EA0029;} .st3{fill-rule:evenodd;clip-rule:evenodd;fill:#2D2A26;} .st4{fill-rule:evenodd;clip-rule:evenodd;fill:#FFFFFF;} .st5{fill-rule:evenodd;clip-rule:evenodd;fill:#EA0029;stroke:#EA0029;stroke-width:0.0106;stroke-linecap:square;stroke-miterlimit:10;} .st6{fill-rule:evenodd;clip-rule:evenodd;fill:#FFFFFF;stroke:#FFFFFF;stroke-width:0.0106;stroke-linecap:square;stroke-miterlimit:10;} .st7{fill:none;} .st8{fill:#0033A1;} .st9{fill:#FFFFFF;} .st10{fill:#FFFFFF;stroke:#FFFFFF;stroke-width:0.0249;stroke-linecap:square;stroke-miterlimit:10;} .st11{fill-rule:evenodd;clip-rule:evenodd;fill:#FFFFFF;stroke:#FFFFFF;stroke-width:0.0249;stroke-linecap:square;stroke-miterlimit:10;} .st12{fill-rule:evenodd;clip-rule:evenodd;fill:#EA0029;stroke:#EA0029;stroke-width:0.0249;stroke-linecap:square;stroke-miterlimit:10;} .st13{fill-rule:evenodd;clip-rule:evenodd;fill:#0033A1;stroke:#002F87;stroke-width:0.0249;stroke-linecap:square;stroke-miterlimit:10;} </style> <g> <g> <g> <g> <path class="st4" d="M215.95,55.08c0-1.12,0.91-1.96,1.99-1.96c1.07,0,1.98,0.83,1.98,1.96c0,1.14-0.91,1.97-1.98,1.97 C216.86,57.05,215.95,56.22,215.95,55.08z M217.94,56.72c0.89,0,1.59-0.69,1.59-1.64c0-0.93-0.7-1.63-1.59-1.63 c-0.9,0-1.6,0.7-1.6,1.63C216.34,56.03,217.04,56.72,217.94,56.72z M217.53,56.22h-0.34v-2.26h0.86c0.54,0,0.8,0.2,0.8,0.64 c0,0.41-0.25,0.58-0.59,0.62l0.64,0.99h-0.38l-0.6-0.98h-0.4V56.22z M217.94,54.95c0.29,0,0.55-0.02,0.55-0.37 c0-0.28-0.25-0.33-0.49-0.33h-0.47v0.7H217.94z"></path> </g> </g> <g> <path class="st9" d="M14.3,63.13l-0.1-1.47h-3.41l-0.73,1.47H8l4.92-9.47h2.78l0.73,9.47H14.3z M13.84,55.56l-2.29,4.53h2.59 L13.84,55.56z"></path> <path class="st9" d="M25.31,63.13h-2.13l1.61-7.61h-2.29l0.39-1.86h6.73l-0.39,1.86h-2.31L25.31,63.13z"></path> <path class="st9" d="M34.41,63.13l0.64-3.09c0.01-0.05,0.02-0.09,0.02-0.12c0-0.03,0.01-0.06,0.01-0.09 c0-0.15-0.13-0.22-0.39-0.22h-3.06l-0.74,3.53h-2.13l1.47-6.92h2.13l-0.39,1.83h2.91c0.2,0,0.34-0.03,0.41-0.1 c0.07-0.07,0.13-0.2,0.17-0.39l0.34-1.54c0.01-0.05,0.02-0.09,0.02-0.13c0-0.04,0.01-0.07,0.01-0.1c0-0.11-0.03-0.19-0.1-0.22 c-0.07-0.04-0.18-0.06-0.34-0.06h-5.02l0.39-1.85h6.02c0.48,0,0.83,0.09,1.05,0.26c0.21,0.17,0.32,0.44,0.32,0.79 c0,0.08-0.01,0.17-0.02,0.27c-0.01,0.09-0.03,0.19-0.05,0.29l-0.43,2.06c-0.1,0.48-0.29,0.83-0.56,1.03 c-0.27,0.2-0.57,0.32-0.9,0.36c0.3,0.02,0.55,0.09,0.76,0.2c0.21,0.12,0.31,0.32,0.31,0.62c0,0.05,0,0.1,0,0.15 c0,0.05-0.01,0.1-0.03,0.16l-0.69,3.29H34.41z"></path> <path class="st9" d="M39.63,63.13c-0.49,0-0.83-0.08-1.04-0.25c-0.21-0.17-0.31-0.43-0.31-0.78c0-0.09,0-0.19,0.01-0.29 c0.01-0.1,0.03-0.21,0.06-0.32l1.65-7.82h2.13l-1.5,7.08c-0.03,0.11-0.04,0.2-0.04,0.25c0,0.1,0.03,0.17,0.1,0.2 c0.07,0.03,0.17,0.05,0.32,0.05h2.8c0.19,0,0.32-0.03,0.41-0.09c0.08-0.06,0.15-0.2,0.2-0.41l1.5-7.08h2.04l-1.65,7.82 c-0.12,0.56-0.33,0.97-0.62,1.24c-0.29,0.27-0.74,0.41-1.34,0.41H39.63z"></path> <path class="st9" d="M47.44,63.13l0.39-1.85h5.05c0.17,0,0.29-0.03,0.37-0.1c0.08-0.07,0.14-0.19,0.18-0.36l0.28-1.31 c0.01-0.04,0.01-0.09,0.01-0.15c0-0.17-0.12-0.25-0.36-0.25h-3.73c-0.38,0-0.66-0.08-0.83-0.24c-0.17-0.16-0.26-0.39-0.26-0.69 c0-0.11,0.01-0.25,0.04-0.41l0.52-2.45c0.12-0.56,0.33-0.97,0.62-1.24c0.29-0.27,0.74-0.41,1.36-0.41h5.89l-0.38,1.8h-5.02 c-0.15,0-0.26,0.03-0.32,0.1c-0.07,0.07-0.12,0.18-0.15,0.35l-0.27,1.25c-0.01,0.04-0.02,0.07-0.02,0.1 c0,0.03-0.01,0.06-0.01,0.08c0,0.14,0.1,0.21,0.31,0.21h3.79c0.39,0,0.67,0.08,0.85,0.25c0.17,0.17,0.26,0.4,0.26,0.7 c0,0.12-0.01,0.25-0.04,0.39l-0.55,2.59c-0.12,0.56-0.33,0.97-0.62,1.24c-0.29,0.27-0.74,0.41-1.34,0.41H47.44z"></path> <path class="st9" d="M60.51,63.13h-2.13L60,55.52H57.7l0.39-1.86h6.73l-0.39,1.86h-2.31L60.51,63.13z"></path> <path class="st9" d="M63.91,63.13l1.47-6.92h2.2l-0.34,1.54h3.48l-0.32,1.51h-3.48l-0.42,1.99h4.83l-0.39,1.89H63.91z M65.52,55.5l0.39-1.85h7.02l-0.39,1.85H65.52z"></path> <path class="st9" d="M72.5,63.13l1.47-6.91h2.1l-1.08,5.06h2.98c0.49,0,0.81-0.3,0.94-0.91l0.84-3.94 c0.03-0.11,0.04-0.22,0.04-0.32c0-0.39-0.2-0.59-0.6-0.59h-5.08l0.39-1.86h5.47c1.38,0,2.07,0.56,2.07,1.68 c0,0.23-0.03,0.48-0.08,0.74l-0.99,4.63c-0.17,0.79-0.5,1.39-0.99,1.8c-0.49,0.41-1.16,0.62-2,0.62H72.5z"></path> <path class="st9" d="M92.66,63.13l-3.58-6.21l-1.32,6.21h-1.97l2-9.47h2l3.11,5.65l1.19-5.65h1.99l-2,9.47H92.66z"></path> <path class="st9" d="M101.39,63.13l-0.1-1.47h-3.41l-0.73,1.47h-2.06l4.92-9.47h2.78l0.73,9.47H101.39z M100.93,55.56l-2.29,4.53 h2.59L100.93,55.56z"></path> <path class="st9" d="M112.58,63.13l1.22-5.75l-3.51,5.75h-1.66l-1.13-5.75l-1.22,5.75h-1.76l2-9.47h2.29l1.23,6.59l4.08-6.59 h2.21l-2,9.47H112.58z"></path> <path class="st9" d="M115.81,63.13l1.47-6.92h2.2l-0.34,1.54h3.48l-0.32,1.51h-3.48l-0.42,1.99h4.83l-0.39,1.89H115.81z M117.42,55.5l0.39-1.85h7.02l-0.39,1.85H117.42z"></path> <path class="st9" d="M136.23,63.13l-0.35-6.76l-3.44,6.76h-2.38l-0.36-9.47h2.18l0.15,6.94l3.43-6.94h2.13l0.29,6.92l3.23-6.92 h2.08l-4.57,9.47H136.23z"></path> <path class="st9" d="M143.76,63.13c-0.48,0-0.82-0.08-1.03-0.25c-0.21-0.17-0.32-0.42-0.32-0.77c0-0.18,0.03-0.39,0.08-0.63 l1.3-6.17c0.12-0.56,0.33-0.97,0.62-1.24c0.29-0.27,0.74-0.41,1.34-0.41h4.71c0.48,0,0.82,0.08,1.02,0.25 c0.2,0.17,0.31,0.43,0.31,0.78c0,0.09-0.01,0.19-0.02,0.29c-0.01,0.1-0.03,0.21-0.05,0.32l-1.3,6.17 c-0.12,0.56-0.33,0.97-0.62,1.24c-0.29,0.27-0.74,0.41-1.34,0.41H143.76z M149.45,56.05c0.01-0.05,0.02-0.09,0.02-0.13 c0-0.04,0.01-0.07,0.01-0.1c0-0.21-0.16-0.32-0.49-0.32h-2.64c-0.19,0-0.32,0.04-0.4,0.11c-0.08,0.07-0.14,0.22-0.19,0.43 l-1.01,4.71c-0.02,0.09-0.03,0.15-0.03,0.18c0,0.2,0.14,0.29,0.41,0.29h2.64c0.22,0,0.38-0.04,0.48-0.11 c0.09-0.07,0.16-0.2,0.2-0.36L149.45,56.05z"></path> <path class="st9" d="M157.2,63.13l0.64-3.09c0.01-0.05,0.02-0.09,0.02-0.12c0-0.03,0.01-0.06,0.01-0.09 c0-0.15-0.13-0.22-0.39-0.22h-3.06l-0.74,3.53h-2.13l1.47-6.92h2.13l-0.39,1.83h2.91c0.2,0,0.34-0.03,0.41-0.1 c0.07-0.07,0.13-0.2,0.18-0.39l0.34-1.54c0.01-0.05,0.02-0.09,0.02-0.13c0-0.04,0.01-0.07,0.01-0.1c0-0.11-0.03-0.19-0.1-0.22 c-0.07-0.04-0.18-0.06-0.34-0.06h-5.02l0.39-1.85h6.02c0.48,0,0.83,0.09,1.05,0.26c0.21,0.17,0.32,0.44,0.32,0.79 c0,0.08-0.01,0.17-0.02,0.27c-0.01,0.09-0.03,0.19-0.05,0.29l-0.43,2.06c-0.1,0.48-0.29,0.83-0.56,1.03 c-0.27,0.2-0.57,0.32-0.9,0.36c0.3,0.02,0.55,0.09,0.76,0.2c0.2,0.12,0.31,0.32,0.31,0.62c0,0.05,0,0.1,0,0.15 c0,0.05-0.01,0.1-0.03,0.16l-0.69,3.29H157.2z"></path> <path class="st9" d="M167.16,63.13h-6.35l2-9.47h2.13l-1.59,7.55h4.22L167.16,63.13z"></path> <path class="st9" d="M168.38,63.13l1.47-6.91h2.1l-1.08,5.06h2.98c0.49,0,0.81-0.3,0.94-0.91l0.84-3.94 c0.03-0.11,0.04-0.22,0.04-0.32c0-0.39-0.2-0.59-0.6-0.59h-5.08l0.39-1.86h5.47c1.38,0,2.07,0.56,2.07,1.68 c0,0.23-0.03,0.48-0.08,0.74l-0.99,4.63c-0.17,0.79-0.5,1.39-0.99,1.8c-0.49,0.41-1.16,0.62-2,0.62H168.38z"></path> <path class="st9" d="M185.81,63.13l-0.35-6.76l-3.44,6.76h-2.38l-0.36-9.47h2.18l0.15,6.94l3.43-6.94h2.13l0.29,6.92l3.23-6.92 h2.08l-4.57,9.47H185.81z"></path> <path class="st9" d="M191.82,63.13l2-9.47h2.13l-2,9.47H191.82z"></path> <path class="st9" d="M195.57,63.13l1.47-6.91h2.1l-1.08,5.06h2.98c0.49,0,0.81-0.3,0.94-0.91l0.84-3.94 c0.03-0.11,0.04-0.22,0.04-0.32c0-0.39-0.2-0.59-0.6-0.59h-5.08l0.39-1.86h5.47c1.38,0,2.07,0.56,2.07,1.68 c0,0.23-0.03,0.48-0.08,0.74l-0.99,4.63c-0.17,0.79-0.5,1.39-0.99,1.8c-0.49,0.41-1.16,0.62-2,0.62H195.57z"></path> <path class="st9" d="M204.96,63.13l1.47-6.92h2.2l-0.34,1.54h3.48l-0.32,1.51h-3.48l-0.42,1.99h4.83l-0.39,1.89H204.96z M206.57,55.5l0.39-1.85h7.02l-0.39,1.85H206.57z"></path> </g> </g> <g> <rect x="8.6" y="10.09" class="st9" width="69.42" height="40.01"></rect> <g> <g> <g> <polygon class="st11" points="77.24,12.67 77.25,47.54 10.7,47.55 10.69,12.68 77.24,12.67 "></polygon> <polygon class="st12" points="77.24,15.35 77.24,12.67 37.74,12.67 37.74,15.35 77.24,15.35 "></polygon> <polygon class="st12" points="77.24,20.82 77.24,18.05 37.74,18.06 37.74,20.83 77.24,20.82 "></polygon> <polygon class="st12" points="37.81,26.28 77.24,26.27 77.24,23.45 37.79,23.46 37.81,26.28 "></polygon> <polygon class="st12" points="37.81,31.35 77.24,31.34 77.25,28.88 37.72,28.89 37.81,31.35 "></polygon> <polygon class="st12" points="77.25,36.86 77.25,34.14 10.69,34.14 10.69,36.86 77.25,36.86 "></polygon> <polygon class="st12" points="77.25,42.26 77.25,39.56 10.7,39.57 10.7,42.27 77.25,42.26 "></polygon> <polygon class="st12" points="77.25,47.54 77.25,44.83 10.69,44.84 10.7,47.55 77.25,47.54 "></polygon> <polygon class="st13" points="10.69,31.35 37.83,31.35 37.82,12.67 10.69,12.68 10.69,31.35 "></polygon> <polygon class="st11" points="12.21,13.75 12.91,13.75 13.11,13.07 13.33,13.75 14.05,13.75 13.48,14.17 13.7,14.86 13.11,14.41 12.56,14.85 12.78,14.17 12.21,13.75 "></polygon> <polygon class="st11" points="16.65,13.75 17.37,13.75 17.59,13.07 17.81,13.75 18.49,13.75 17.94,14.17 18.16,14.85 17.59,14.41 17.02,14.85 17.22,14.17 16.65,13.75 "></polygon> <polygon class="st11" points="21.09,13.75 21.79,13.75 22.01,13.07 22.23,13.75 22.93,13.75 22.36,14.17 22.6,14.85 22.01,14.41 21.43,14.85 21.65,14.17 21.09,13.75 "></polygon> <polygon class="st11" points="25.54,13.75 26.27,13.75 26.49,13.07 26.71,13.75 27.41,13.75 26.82,14.17 27.06,14.85 26.49,14.41 25.92,14.85 26.14,14.17 25.54,13.75 "></polygon> <polygon class="st11" points="30.02,13.75 30.73,13.75 30.95,13.07 31.15,13.75 31.87,13.75 31.28,14.17 31.5,14.85 30.95,14.41 30.38,14.85 30.6,14.17 30.02,13.75 "></polygon> <polygon class="st11" points="34.53,13.75 35.23,13.75 35.48,13.07 35.7,13.75 36.4,13.75 35.83,14.17 36.04,14.85 35.47,14.41 34.91,14.85 35.12,14.17 34.53,13.75 "></polygon> <polygon class="st11" points="34.53,17.84 35.24,17.84 35.47,17.16 35.7,17.84 36.4,17.84 35.83,18.23 36.04,18.91 35.48,18.5 34.9,18.91 35.12,18.23 34.53,17.84 "></polygon> <polygon class="st11" points="30.03,17.84 30.73,17.84 30.95,17.16 31.15,17.84 31.87,17.84 31.28,18.23 31.5,18.91 30.95,18.5 30.38,18.91 30.6,18.23 30.03,17.84 "></polygon> <polygon class="st11" points="25.54,17.84 26.27,17.84 26.49,17.16 26.71,17.84 27.41,17.84 26.82,18.23 27.06,18.91 26.49,18.5 25.92,18.92 26.14,18.23 25.54,17.84 "></polygon> <polygon class="st11" points="21.08,17.84 21.79,17.84 22.01,17.16 22.23,17.84 22.93,17.84 22.36,18.23 22.6,18.91 22.01,18.5 21.43,18.92 21.66,18.23 21.08,17.84 "></polygon> <polygon class="st11" points="16.65,17.84 17.38,17.84 17.59,17.16 17.81,17.84 18.49,17.84 17.94,18.23 18.16,18.91 17.59,18.5 17.02,18.91 17.22,18.23 16.65,17.84 "></polygon> <polygon class="st11" points="12.21,17.84 12.91,17.84 13.11,17.16 13.33,17.84 14.05,17.84 13.48,18.23 13.7,18.92 13.11,18.5 12.56,18.91 12.78,18.23 12.21,17.84 "></polygon> <polygon class="st11" points="12.21,21.82 12.91,21.82 13.11,21.14 13.33,21.82 14.05,21.82 13.49,22.23 13.7,22.92 13.11,22.5 12.56,22.92 12.78,22.23 12.21,21.82 "></polygon> <polygon class="st11" points="12.21,25.88 12.91,25.88 13.11,25.2 13.33,25.88 14.06,25.88 13.49,26.32 13.7,26.98 13.11,26.56 12.56,26.98 12.78,26.32 12.21,25.88 "></polygon> <polygon class="st11" points="12.21,29.88 12.91,29.88 13.11,29.2 13.33,29.88 14.06,29.88 13.49,30.3 13.7,30.96 13.11,30.54 12.57,30.96 12.78,30.3 12.21,29.88 "></polygon> <polygon class="st11" points="16.65,29.88 17.38,29.88 17.59,29.2 17.81,29.88 18.49,29.88 17.95,30.3 18.16,30.96 17.59,30.54 17.02,30.96 17.22,30.3 16.65,29.88 "></polygon> <polygon class="st11" points="21.09,29.88 21.79,29.88 22.01,29.2 22.23,29.88 22.93,29.88 22.36,30.3 22.6,30.96 22.01,30.54 21.44,30.95 21.66,30.3 21.09,29.88 "></polygon> <polygon class="st11" points="25.54,29.88 26.27,29.88 26.49,29.2 26.71,29.88 27.41,29.88 26.82,30.29 27.06,30.95 26.49,30.54 25.92,30.95 26.14,30.29 25.54,29.88 "></polygon> <polygon class="st11" points="30.03,29.88 30.73,29.88 30.95,29.2 31.15,29.88 31.87,29.88 31.28,30.3 31.5,30.95 30.95,30.54 30.38,30.95 30.6,30.29 30.03,29.88 "></polygon> <polygon class="st11" points="34.53,29.88 35.23,29.88 35.48,29.19 35.7,29.88 36.4,29.88 35.83,30.29 36.05,30.95 35.48,30.54 34.91,30.95 35.13,30.29 34.53,29.88 "></polygon> <polygon class="st11" points="34.53,25.87 35.24,25.88 35.47,25.2 35.7,25.87 36.4,25.88 35.83,26.32 36.05,26.97 35.48,26.56 34.91,26.97 35.12,26.32 34.53,25.87 "></polygon> <polygon class="st11" points="30.03,25.88 30.73,25.88 30.95,25.2 31.15,25.87 31.87,25.88 31.28,26.32 31.5,26.97 30.95,26.56 30.38,26.98 30.6,26.32 30.03,25.88 "></polygon> <polygon class="st11" points="25.55,25.88 26.27,25.88 26.49,25.2 26.71,25.88 27.41,25.88 26.82,26.32 27.06,26.98 26.49,26.56 25.92,26.98 26.14,26.32 25.55,25.88 "></polygon> <polygon class="st11" points="21.09,25.88 21.79,25.88 22.01,25.2 22.23,25.88 22.93,25.88 22.36,26.32 22.6,26.98 22.01,26.56 21.44,26.98 21.66,26.32 21.09,25.88 "></polygon> <polygon class="st11" points="16.65,25.88 17.38,25.88 17.59,25.2 17.81,25.88 18.49,25.88 17.94,26.32 18.16,26.98 17.59,26.56 17.02,26.98 17.22,26.32 16.65,25.88 "></polygon> <polygon class="st11" points="14.39,27.84 15.09,27.84 15.31,27.15 15.53,27.84 16.23,27.84 15.66,28.28 15.88,28.93 15.31,28.52 14.73,28.93 14.98,28.28 14.39,27.84 "></polygon> <polygon class="st11" points="18.85,27.84 19.57,27.83 19.77,27.15 19.99,27.84 20.71,27.84 20.12,28.28 20.34,28.93 19.77,28.52 19.2,28.93 19.42,28.28 18.85,27.84 "></polygon> <polygon class="st11" points="23.3,27.84 24.01,27.84 24.23,27.15 24.45,27.84 25.15,27.84 24.58,28.28 24.8,28.93 24.23,28.52 23.66,28.93 23.86,28.28 23.3,27.84 "></polygon> <polygon class="st11" points="27.76,27.84 28.45,27.83 28.67,27.15 28.91,27.84 29.61,27.84 29.04,28.27 29.26,28.93 28.67,28.52 28.09,28.93 28.34,28.27 27.76,27.84 "></polygon> <polygon class="st11" points="32.34,27.83 33.06,27.83 33.28,27.15 33.48,27.83 34.18,27.83 33.63,28.27 33.85,28.93 33.28,28.51 32.71,28.93 32.93,28.27 32.34,27.83 "></polygon> <polygon class="st11" points="32.33,23.88 33.06,23.88 33.28,23.17 33.48,23.88 34.18,23.88 33.63,24.25 33.85,24.95 33.28,24.54 32.71,24.95 32.93,24.25 32.33,23.88 "></polygon> <polygon class="st11" points="27.76,23.88 28.45,23.88 28.67,23.17 28.91,23.88 29.61,23.88 29.04,24.25 29.26,24.96 28.67,24.54 28.09,24.95 28.33,24.25 27.76,23.88 "></polygon> <polygon class="st11" points="23.3,23.88 24.01,23.88 24.23,23.17 24.45,23.88 25.15,23.88 24.58,24.25 24.8,24.96 24.23,24.54 23.66,24.96 23.86,24.25 23.3,23.88 "></polygon> <polygon class="st11" points="18.85,23.88 19.57,23.88 19.77,23.18 19.99,23.88 20.71,23.88 20.12,24.25 20.34,24.96 19.76,24.54 19.19,24.96 19.42,24.25 18.85,23.88 "></polygon> <polygon class="st11" points="14.39,23.88 15.09,23.88 15.31,23.18 15.53,23.88 16.23,23.88 15.66,24.26 15.88,24.96 15.31,24.54 14.73,24.96 14.98,24.26 14.39,23.88 "></polygon> <polygon class="st11" points="16.65,21.82 17.37,21.82 17.59,21.14 17.81,21.82 18.49,21.82 17.94,22.23 18.16,22.91 17.59,22.49 17.02,22.92 17.22,22.23 16.65,21.82 "></polygon> <polygon class="st11" points="21.08,21.82 21.79,21.81 22.01,21.13 22.23,21.82 22.93,21.82 22.36,22.23 22.6,22.92 22.01,22.49 21.43,22.91 21.66,22.23 21.08,21.82 "></polygon> <polygon class="st11" points="25.54,21.82 26.27,21.82 26.49,21.13 26.71,21.81 27.41,21.81 26.82,22.23 27.06,22.91 26.49,22.49 25.92,22.92 26.14,22.23 25.54,21.82 "></polygon> <polygon class="st11" points="30.03,21.81 30.73,21.81 30.95,21.13 31.15,21.81 31.87,21.82 31.28,22.23 31.5,22.91 30.95,22.49 30.38,22.91 30.6,22.23 30.03,21.81 "></polygon> <polygon class="st11" points="34.54,21.81 35.24,21.81 35.47,21.13 35.7,21.81 36.4,21.81 35.83,22.23 36.05,22.91 35.48,22.49 34.9,22.91 35.12,22.23 34.54,21.81 "></polygon> <polygon class="st11" points="32.33,19.79 33.06,19.79 33.28,19.09 33.48,19.79 34.18,19.79 33.63,20.19 33.85,20.85 33.28,20.45 32.71,20.85 32.93,20.19 32.33,19.79 "></polygon> <polygon class="st11" points="27.76,19.79 28.45,19.79 28.67,19.09 28.91,19.79 29.61,19.79 29.04,20.19 29.26,20.85 28.67,20.45 28.09,20.85 28.33,20.19 27.76,19.79 "></polygon> <polygon class="st11" points="23.3,19.79 24.01,19.79 24.23,19.09 24.45,19.79 25.15,19.79 24.58,20.19 24.8,20.85 24.23,20.45 23.66,20.85 23.85,20.19 23.3,19.79 "></polygon> <polygon class="st11" points="18.84,19.79 19.57,19.79 19.77,19.09 19.99,19.79 20.71,19.79 20.12,20.19 20.34,20.85 19.77,20.45 19.19,20.85 19.42,20.19 18.84,19.79 "></polygon> <polygon class="st11" points="14.39,19.79 15.09,19.79 15.31,19.09 15.53,19.79 16.23,19.79 15.66,20.19 15.88,20.85 15.31,20.45 14.74,20.85 14.98,20.19 14.39,19.79 "></polygon> <polygon class="st11" points="14.38,15.82 15.09,15.82 15.31,15.11 15.53,15.82 16.23,15.82 15.66,16.22 15.88,16.88 15.31,16.48 14.73,16.88 14.98,16.21 14.38,15.82 "></polygon> <polygon class="st11" points="18.85,15.82 19.57,15.82 19.77,15.11 19.99,15.82 20.71,15.82 20.12,16.22 20.34,16.87 19.77,16.48 19.19,16.87 19.42,16.22 18.85,15.82 "></polygon> <polygon class="st11" points="23.3,15.82 24.01,15.82 24.22,15.11 24.45,15.82 25.15,15.82 24.58,16.21 24.8,16.87 24.23,16.48 23.66,16.87 23.85,16.22 23.3,15.82 "></polygon> <polygon class="st11" points="27.76,15.82 28.44,15.82 28.66,15.11 28.91,15.82 29.61,15.82 29.04,16.21 29.26,16.87 28.67,16.48 28.09,16.87 28.33,16.21 27.76,15.82 "></polygon> <polygon class="st11" points="32.33,15.82 33.06,15.82 33.28,15.11 33.48,15.82 34.18,15.82 33.63,16.21 33.85,16.87 33.28,16.48 32.71,16.87 32.93,16.21 32.33,15.82 "></polygon> <polyline class="st7" points="77.24,12.67 77.25,47.54 10.7,47.55 10.69,12.68 77.24,12.67 "></polyline> </g> </g> </g> <g> <path class="st9" d="M72.09,11.86L58.9,50.08l22.66,0.01c0,0,1.15-4.01,1.63-5.69c1.8-0.01,3.68-0.02,5.5-0.03 c0.48,1.7,1.62,5.73,1.62,5.73l22.48,0L99.35,10.11l-26.65,0L72.09,11.86z"></path> <path class="st9" d="M177.97,12.8l-2.17,2.37l2.83,1.65c0.21,0.12,2,1.25,2,4.28c0,0.08,0,0.17,0,0.26 c-0.14,4.51-2.3,4.98-4.21,5.39c-0.88,0.19-3.21,0.69-3.2,3.04c0,2.43,2.41,2.91,3.44,3.11c1.04,0.21,2.32,0.48,3.32,1.32 c0.15,0.21,0.35,0.66,0.35,0.91c0,0,0.1,7.74,0.1,8.02c-0.01,0.17-0.02,0.32-0.02,0.57c0,1.1,0.2,2.85,1.28,4.11 c1.03,1.18,2.92,1.92,5.63,2.21c0.63,0.07,6.69,0.46,8.06,0.47c0,0,0.29,0,0.29,0c8.04,0.08,13.81-1.07,17.15-3.45 c5.94-4.23,6.44-11.33,6.44-18.84c0-8.27-1.7-12.45-6.52-15.96c-4.12-3-11.48-3.38-17.44-3.38 C182.23,8.87,178.57,12.14,177.97,12.8z M197.02,39.61l-0.08-0.78"></path> <path class="st9" d="M140.4,15.34c1.16,0.02,4.96,0.49,4.96,5.77v0c0,3.57-1.71,4.21-4.54,4.84c-1.34,0.3-3.85,0.85-3.85,3.4 c0,2.41,2.39,2.94,3.69,3.22c3.14,0.69,5.55,1.54,5.55,5.69c0,5.31-5.33,6.58-5.94,6.71l-8.18,5.13l26.92,0 c0,0,0.04-11.36,0.06-14.89c0.35,0,0.81,0,0.87,0c0.32,0.03,0.72,0.13,0.89,0.23c0.28,0.4,0.38,0.58,0.4,0.61l0,0 c0,0.01,0.01,0.2,0.01,0.2s-0.01,8.61-0.01,9c0,0.08-0.03,0.13-0.03,0.22c0,0.82,0.34,1.88,1.53,3.08 c1.71,1.72,4.49,1.78,5.51,1.33l-1.05,0.22l24.81,0l-8.25-4.85c-0.08-0.05-0.15-0.12-0.22-0.18c-0.11-1.13-0.18-5.36-0.19-8.93 l0,0c0-0.54-0.13-2.42-1.75-4.27c-0.78-0.9-1.92-1.58-3.15-2.12c2.38-1.13,5.14-3.29,5.14-8.14c0-8.85-9.15-11.34-13.98-11.42 c-0.04,0-38.37-0.05-38.37-0.05L140.4,15.34z"></path> <path class="st9" d="M132.2,10.11c0.05-0.02,0.23-0.1,0.23-0.1l-29.9,0.04l-0.01,20.05l6.65,20.04l24.26,0 c5.42-0.01,15.65-2.46,15.65-11.62c0,0,0,0,0,0c0-5.39-3.34-8.02-6.65-9.41c2.9-1.29,5.72-3.66,5.76-8.47c0-0.04,0-0.07,0-0.1 c0-3.99-2.27-7.15-6.4-8.9C140.63,11.13,135.22,9.57,132.2,10.11z"></path> <path class="st9" d="M219.92,10.77c-1.45,0-2.76,0.56-3.85,1.46c0,0-0.06,0-0.06,0s0,0.04,0,0.04c-0.13,0.11-0.3,0.16-0.42,0.28 c-1.13,1.13-1.75,2.63-1.75,4.24c0,0,0,0,0,0.01c0,1.62,0.62,3.13,1.75,4.26c0.12,0.12,0.29,0.17,0.42,0.28l0,0.04 c0,0,0.06,0,0.06,0c1.09,0.9,2.41,1.46,3.86,1.46c0,0,0,0,0,0c1.44,0,2.75-0.56,3.84-1.46c1.09-1.03,0.87-0.81,1.45-1.78 c0.46-0.86,0.78-1.79,0.78-2.8c0,0,0,0,0-0.01c0-1.61-0.62-3.11-1.75-4.24C223.1,11.4,221.56,10.76,219.92,10.77L219.92,10.77z M219.77,17.04c-0.04-0.04-0.07-0.13-0.07-0.25l0,0c0-0.1,0.02-0.18,0.06-0.22c0.01-0.01,0.05-0.05,0.15-0.05 c0.05,0,0.2,0,0.2,0.27c0,0.29-0.14,0.29-0.2,0.29C219.85,17.09,219.8,17.07,219.77,17.04z"></path> <path class="st8" d="M219.19,18.79l-0.6,0l0-3.97l1.51,0c0.94,0,1.4,0.35,1.41,1.13c0,0.71-0.45,1.02-1.03,1.09l1.13,1.75 l-0.67,0l-1.05-1.72l-0.69,0L219.19,18.79z M219.91,16.56c0.51,0,0.96-0.03,0.96-0.64c0-0.49-0.45-0.59-0.86-0.59l-0.82,0l0,1.23 L219.91,16.56z M219.92,19.68c1.56,0,2.79-1.22,2.79-2.88c0-1.63-1.23-2.86-2.79-2.86c-1.58,0-2.81,1.23-2.81,2.86 C217.11,18.46,218.34,19.68,219.92,19.68z M216.42,16.79c0-1.98,1.6-3.43,3.5-3.43c1.88,0,3.49,1.46,3.48,3.43 c0,2-1.61,3.46-3.48,3.46C218.02,20.25,216.42,18.79,216.42,16.79z"></path> <path class="st8" d="M79.6,47.51l1.62-5.68l9.42-0.05l1.62,5.74l16.92-0.01L97.49,12.7l-22.94,0L62.53,47.5L79.6,47.51z M85.99,18.53l3.54,17.07l-7.24,0L85.99,18.53z"></path> <path class="st8" d="M195.28,11.46c4.46,0,12.18,0.16,15.91,2.89c3.74,2.72,5.46,5.76,5.46,13.87c0,8.1-0.73,13.44-5.36,16.73 c-4.62,3.29-14.73,2.97-15.93,2.97c-1.2,0-7.19-0.39-7.78-0.45c-0.6-0.07-3.12-0.38-3.94-1.33c-0.82-0.95-0.62-2.99-0.62-2.99 s-0.14-5.85-0.1-7.96c0.02-1.18-0.72-2.48-1.15-2.86c-2.53-2.25-5.95-1.77-5.95-2.53c0-1.03,7.13,0.42,7.42-8.36 c0.16-5.07-3.34-6.89-3.34-6.89S182.71,11.46,195.28,11.46z M191.63,20.74l-0.01,18.17c0,0,0,2.32,3.86,2.32 c3.93,0,4.04-2.27,4.04-2.27s0.06-15.12,0-18.16c-0.05-2.78-4.1-2.73-4.1-2.73C191.76,18.07,191.63,20.74,191.63,20.74z"></path> <path class="st8" d="M160.44,18.73c0,0,3.53-0.02,3.53,3.78c0,3.86-3.52,3.86-3.52,3.86h-3.95l0-7.63L160.44,18.73z M140.42,12.75c0,0,7.54-0.03,7.54,8.36c0,8.45-8.39,6.67-8.39,8.24c0,1.22,9.24-0.07,9.23,8.91c0,7.66-8.01,9.24-8.01,9.24 l15.64,0l0.05-14.89l3.6,0c0,0,2,0.12,2.76,1.17c0.76,1.05,0.97,1.52,0.98,2.43c0.01,0.91,0,9.11,0,9.11s-0.24,0.4,0.74,1.39 c0.98,0.98,2.62,0.79,2.62,0.79l15.28,0.01c0,0-1.29-0.7-1.48-1.78c-0.24-1.39-0.25-9.59-0.25-9.59s0.03-1.27-1.11-2.56 c-1.42-1.62-5.34-2.48-6.06-2.67c-1.8-0.48-1.83-0.81-1.83-1.19c0-0.85,1.29-0.74,3.52-1.5c2.39-0.82,5.72-1.85,5.72-6.59 c0-8.64-11.43-8.83-11.43-8.83L140.42,12.75z"></path> <path class="st8" d="M132.44,12.6c0,0,13.26-0.51,13.18,8c-0.08,8.2-11.07,6.68-11.07,8.67c0,1.42,11.96,0.38,11.95,9.24 c0,8.99-13.06,9.03-13.06,9.03l-22.4-0.01l-5.92-17.86l0-17.04L132.44,12.6z M121.54,19.31l0,7.03l3.95,0 c0,0,3.52-0.29,3.53-3.65c0-3.35-3.53-3.4-3.53-3.4L121.54,19.31z M121.54,32.92l0,7.6l3.95,0c0,0,3.9-0.16,3.9-4.03 c0-3.99-3.91-3.58-3.91-3.58L121.54,32.92z"></path> </g> </g> </g> </svg> 